<?xml version="1.0" standalone="no"?>
<!DOCTYPE svg PUBLIC "-//W3C//DTD SVG 20010904//EN" "http://www.w3.org/TR/2001/REC-SVG-20010904/DTD/svg10.dtd">
<!-- Created using Krita: https://krita.org -->
<svg xmlns="http://www.w3.org/2000/svg" 
    xmlns:xlink="http://www.w3.org/1999/xlink"
    xmlns:krita="http://krita.org/namespaces/svg/krita"
    xmlns:sodipodi="http://sodipodi.sourceforge.net/DTD/sodipodi-0.dtd"
    width="506pt"
    height="487pt"
    viewBox="0 0 506 487">
<defs>
  <radialGradient id="gradient0" gradientUnits="objectBoundingBox" cx="0.5" cy="0.374133930932194" fx="0.5" fy="0.235565807925618" r="0.488116557819447" spreadMethod="pad">
   <stop stop-color="#ffffff" offset="0" stop-opacity="1"/>
   <stop stop-color="#0088d9" offset="0.388888888888889" stop-opacity="1"/>
   <stop stop-color="#012069" offset="1" stop-opacity="1"/>
  </radialGradient>
  <radialGradient id="gradient1" gradientUnits="objectBoundingBox" cx="0" cy="0.442506985472095" fx="0" fy="0" r="1.4142135623731" spreadMethod="pad">
   <stop stop-color="#ffffff" offset="0" stop-opacity="1"/>
   <stop stop-color="#ffffff" offset="0.623456790123457" stop-opacity="1"/>
   <stop stop-color="#b0f1ba" offset="0.660493827160494" stop-opacity="1"/>
   <stop stop-color="#648e5e" offset="0.759259259259259" stop-opacity="1"/>
  </radialGradient>
  <radialGradient id="gradient2" gradientUnits="objectBoundingBox" cx="-0.000169125835597139" cy="0.409484297882732" fx="0" fy="0" r="1.4142135623731" spreadMethod="pad">
   <stop stop-color="#ffffff" offset="0" stop-opacity="1"/>
   <stop stop-color="#ffffff" offset="0.623456790123457" stop-opacity="1"/>
   <stop stop-color="#b0f1ba" offset="0.660493827160494" stop-opacity="1"/>
   <stop stop-color="#648e5e" offset="0.759259259259259" stop-opacity="1"/>
  </radialGradient>
  <radialGradient id="gradient3" gradientUnits="objectBoundingBox" cx="0.490645534371304" cy="0.498903130760942" fx="0.490645534371305" fy="0.498903130760942" r="1.4142135623731" spreadMethod="pad">
   <stop stop-color="#000000" offset="0.259259259259259" stop-opacity="1"/>
   <stop stop-color="#34b600" offset="0.314814814814815" stop-opacity="1"/>
  </radialGradient>
  <radialGradient id="gradient4" gradientUnits="objectBoundingBox" cx="0.102890424762221" cy="0.00411176653502882" fx="0.245747570407673" fy="0.260014237209381" r="1.4142135623731" spreadMethod="pad">
   <stop stop-color="#ffffff" offset="0.0864197530864197" stop-opacity="1"/>
   <stop stop-color="#ffffff" offset="0.345679012345679" stop-opacity="0"/>
  </radialGradient>
  <radialGradient id="gradient5" gradientUnits="objectBoundingBox" cx="0.490645534371304" cy="0.498903130760942" fx="0.490645534371305" fy="0.498903130760942" r="1.4142135623731" spreadMethod="pad">
   <stop stop-color="#000000" offset="0.259259253740311" stop-opacity="1"/>
   <stop stop-color="#34b600" offset="0.314814805984497" stop-opacity="1"/>
  </radialGradient>
  <radialGradient id="gradient6" gradientUnits="objectBoundingBox" cx="0.102890424762221" cy="0.00411176653502882" fx="0.245747570407673" fy="0.260014237209381" r="1.4142135623731" spreadMethod="pad">
   <stop stop-color="#ffffff" offset="0.0864197537302971" stop-opacity="1"/>
   <stop stop-color="#ffffff" offset="0.345679014921188" stop-opacity="0"/>
  </radialGradient>
 </defs>
<circle id="shape0" transform="translate(55.5000026921755, 71.999997797311)" r="216.499997307825" cx="216.499997307825" cy="216.499997307825" fill="url(#gradient0)" fill-rule="evenodd"/><path id="shape1" transform="translate(272, 217.570606877295)" fill="url(#gradient1)" fill-rule="evenodd" stroke="#000000" stroke-opacity="0" stroke-width="0" stroke-linecap="square" stroke-linejoin="bevel" d="M0 64.565L0 143.179C47.2809 142.958 116.864 169.555 143.072 128.283C161.024 106.288 170.894 17.2288 121.151 1.27895C38.4104 -10.7513 38.5684 66.0884 0 64.565Z"/><path id="shape0" transform="matrix(-0.999999993182064 0 0 0.999999993182064 271.97332834213 217.711612349751)" fill="url(#gradient2)" fill-rule="evenodd" stroke="#000000" stroke-opacity="0" stroke-width="0" stroke-linecap="square" stroke-linejoin="bevel" d="M0 64.565L0 143.179C47.2809 142.958 116.864 169.555 143.072 128.283C161.024 106.288 170.894 17.2288 121.151 1.27895C38.4104 -10.7513 38.5684 66.0884 0 64.565Z"/><path id="shape2" transform="translate(426.554587181393, 110.263461382864)" fill="#012069" fill-rule="evenodd" stroke="#000000" stroke-opacity="0" stroke-width="0" stroke-linecap="square" stroke-linejoin="bevel" d="M0 29L49 0L98 63L55.1954 125.862C43.5269 91.5955 12.7906 37.0946 0 29Z"/><path id="shape01" transform="matrix(0.849922785986278 -0.526907253174357 0.526907253174357 0.849922785986278 275.047449486523 45.9605428118097)" fill="#012069" fill-rule="evenodd" stroke="#000000" stroke-opacity="0" stroke-width="0" stroke-linecap="square" stroke-linejoin="bevel" d="M0 32.2403L53.5532 0L102.553 63L66.4106 115.01C54.5063 87.299 26.4881 51.2473 0 32.2403Z"/><path id="shape02" transform="matrix(0.396112666188501 -0.918201861158619 0.918201861158619 0.396112666188501 129.703901354943 95.0869570879865)" fill="#012069" fill-rule="evenodd" stroke="#000000" stroke-opacity="0" stroke-width="0" stroke-linecap="square" stroke-linejoin="bevel" d="M0 28.1633L59.6961 0L108.718 57.4023L68.637 105.597C56.7327 77.8861 26.4881 47.1703 0 28.1633Z"/><path id="shape03" transform="matrix(-1 0 0 1 117.161603457751 112.950166766931)" fill="#012069" fill-rule="evenodd" stroke="#000000" stroke-opacity="0" stroke-width="0" stroke-linecap="square" stroke-linejoin="bevel" d="M0 29L49 0L98 63L55.1954 125.862C43.5269 91.5955 12.7906 37.0946 0 29Z"/><path id="shape3" transform="translate(90.1561159106887, 389.615842092466)" fill="none" stroke="#ffffff" stroke-width="11" stroke-linecap="square" stroke-linejoin="bevel" d="M0 0L65.4074 4.24264L73.8927 44.5477L136.118 53.033L144.844 8.88417L181.844 9.88417"/><path id="shape04" transform="matrix(-1.0000000008702 0 0 1.0000000008702 454.316105154974 388.908728148227)" fill="none" stroke="#ffffff" stroke-width="11" stroke-linecap="square" stroke-linejoin="bevel" d="M0 0L59.0764 4.9639L67.5617 45.269L129.787 53.7543L138.513 9.60543L175.513 10.6055"/><path id="shape4" transform="translate(449.543128426404, 379.414240107798)" fill="none" stroke="#022169" stroke-width="5" stroke-linecap="square" stroke-linejoin="miter" stroke-miterlimit="2" d="M0 26.8186C6.27268 18.3422 10.6605 9.66206 14.0657 0"/><path id="shape05" transform="matrix(-0.999999981481467 0 0 0.999999981481467 92.4376596671178 376.210309474775)" fill="none" stroke="#022169" stroke-width="5" stroke-linecap="square" stroke-linejoin="miter" stroke-miterlimit="2" d="M0 26.8186C6.27268 18.3422 10.6605 9.66206 14.0657 0"/><g id="group0" transform="translate(302.558636205971, 273.599611072416)" fill="none">
  <ellipse id="shape5" transform="translate(0.420548402453221, 0.400388927584402)" rx="24.5" ry="45" cx="24.5" cy="45" fill="url(#gradient3)" fill-rule="evenodd"/>
  <ellipse id="shape06" transform="matrix(0.999999989088047 0 0 0.999999989088047 -5.6843418860808e-14 0)" rx="24.5" ry="45" cx="24.5" cy="45" fill="url(#gradient4)" fill-rule="evenodd" stroke="#000000" stroke-opacity="0" stroke-width="0" stroke-linecap="square" stroke-linejoin="bevel"/>
 </g><g id="group0" transform="matrix(0.999999986590469 0 0 0.999999986590469 199.302766190915 273.113495505787)" fill="none">
  <ellipse id="shape07" transform="translate(0.774101801374343, -5.6843418860808e-14)" rx="24.5" ry="45" cx="24.5" cy="45" fill="url(#gradient5)" fill-rule="evenodd" stroke="#000000" stroke-opacity="0" stroke-width="0" stroke-linecap="square" stroke-linejoin="bevel"/>
  <ellipse id="shape08" transform="matrix(0.999999989088047 0 0 0.999999989088047 -5.6843418860808e-14 0.129941170797053)" rx="24.5" ry="45" cx="24.5" cy="45" fill="url(#gradient6)" fill-rule="evenodd" stroke="#000000" stroke-opacity="0" stroke-width="0" stroke-linecap="square" stroke-linejoin="bevel"/>
 </g>
</svg>
