<svg xmlns:dc="http://purl.org/dc/elements/1.1/" xmlns:cc="http://creativecommons.org/ns#" xmlns:rdf="http://www.w3.org/1999/02/22-rdf-syntax-ns#" xmlns:svg="http://www.w3.org/2000/svg" xmlns="http://www.w3.org/2000/svg" xmlns:sodipodi="http://sodipodi.sourceforge.net/DTD/sodipodi-0.dtd" xmlns:inkscape="http://www.inkscape.org/namespaces/inkscape" width="132.29167mm" height="44.116676mm" viewBox="0 0 132.29167 44.116676" version="1.1" id="svg24014" inkscape:version="0.92.4 (5da689c313, 2019-01-14)" sodipodi:docname="Sega logo International R.svg">
  <defs id="defs24008"/>
  <sodipodi:namedview id="base" pagecolor="#ffffff" bordercolor="#666666" borderopacity="1.0" inkscape:pageopacity="0.0" inkscape:pageshadow="2" inkscape:zoom="1.4" inkscape:cx="328.1559" inkscape:cy="131.60967" inkscape:document-units="mm" inkscape:current-layer="layer1" showgrid="false" fit-margin-top="0" fit-margin-left="0" fit-margin-right="0" fit-margin-bottom="0" inkscape:window-width="1920" inkscape:window-height="1027" inkscape:window-x="-8" inkscape:window-y="-8" inkscape:window-maximized="1"/>
  <metadata id="metadata24011">
    <rdf:RDF>
      <cc:Work rdf:about="">
        <dc:format>image/svg+xml</dc:format>
        <dc:type rdf:resource="http://purl.org/dc/dcmitype/StillImage"/>
        <dc:title/>
      </cc:Work>
    </rdf:RDF>
  </metadata>
  <g inkscape:label="Layer 1" inkscape:groupmode="layer" id="layer1" transform="translate(-44.473958,-136.72208)">
    <g id="g20638" transform="matrix(4.5446998,0,0,-4.5446998,164.75398,144.81747)">
      <path d="M 0,0 C -0.325,1.01 -1.273,1.742 -2.39,1.742 -3.509,1.742 -4.457,1.01 -4.782,0 l -0.831,-2.495 v 4.102 h -4.432 c -0.798,0 -1.522,-0.316 -2.054,-0.831 v 0.831 h -4.565 c -0.847,0 -1.61,-0.356 -2.149,-0.927 v 0.927 h -4.297 c -1.852,-0.002 -3.351,-1.504 -3.351,-3.357 0,-0.881 0.34,-1.683 0.895,-2.283 h -0.9 v -3.893 h 4.297 c 1.216,0.001 2.28,0.65 2.868,1.62 0.487,-0.961 1.485,-1.62 2.637,-1.62 h 4.565 v 0.83 c 0.532,-0.514 1.256,-0.83 2.054,-0.83 H 2.643 Z" style="fill:#ffffff;fill-opacity:1;fill-rule:nonzero;stroke:none" id="path20640" inkscape:connector-curvature="0"/>
    </g>
    <g id="g20642" transform="matrix(4.5446998,0,0,-4.5446998,64.000271,166.19488)" style="fill:#0060a8;fill-opacity:1">
      <path d="M 0,0 H -3.625 V -1.141 H 0 c 0.704,0 1.276,0.571 1.276,1.275 C 1.276,0.839 0.704,1.41 0,1.41 h -0.94 c -0.853,0 -1.544,0.691 -1.544,1.544 0,0.853 0.691,1.544 1.544,1.544 H 2.686 V 5.64 H -0.94 c -1.483,0 -2.685,-1.203 -2.685,-2.686 0,-1.483 1.202,-2.686 2.685,-2.686 H 0 C 0.074,0.268 0.134,0.209 0.134,0.134 0.134,0.06 0.074,0 0,0" style="fill:#0060a8;fill-opacity:1;fill-rule:nonzero;stroke:none" id="path20644" inkscape:connector-curvature="0"/>
    </g>
    <g id="g20646" transform="matrix(4.5446998,0,0,-4.5446998,59.726425,152.15901)" style="fill:#0060a8;fill-opacity:1">
      <path d="M 0,0 H 3.626 V 1.141 H 0 c -0.704,0 -1.275,-0.571 -1.275,-1.275 0,-0.705 0.571,-1.276 1.275,-1.276 h 0.94 c 0.853,0 1.545,-0.691 1.545,-1.544 0,-0.853 -0.692,-1.544 -1.545,-1.544 H -2.685 V -5.64 H 0.94 c 1.483,0 2.686,1.203 2.686,2.686 0,1.483 -1.203,2.686 -2.686,2.686 H 0 c -0.074,0 -0.134,0.059 -0.134,0.134 C -0.134,-0.06 -0.074,0 0,0" style="fill:#0060a8;fill-opacity:1;fill-rule:nonzero;stroke:none" id="path20648" inkscape:connector-curvature="0"/>
    </g>
    <g id="g20650" transform="matrix(4.5446998,0,0,-4.5446998,119.10385,146.9726)" style="fill:#0060a8;fill-opacity:1">
      <path d="m 0,0 c -0.481,0 -0.872,-0.389 -0.872,-0.871 v -3.627 c 0,-0.482 0.391,-0.873 0.872,-0.873 H 2.35 V -2.82 H 0.537 V -3.961 H 1.209 V -4.229 H 0.537 c -0.148,0 -0.268,0.12 -0.268,0.268 v 2.551 c 0,0.149 0.12,0.269 0.268,0.269 H 3.76 V 0 Z" style="fill:#0060a8;fill-opacity:1;fill-rule:nonzero;stroke:none" id="path20652" inkscape:connector-curvature="0"/>
    </g>
    <g id="g20654" transform="matrix(4.5446998,0,0,-4.5446998,153.80219,160.32672)" style="fill:#0060a8;fill-opacity:1">
      <path d="M 0,0 0.388,-1.157 H -0.395 Z M -0.49,-2.432 H 2.16 L 0.364,2.924 C 0.316,3.07 0.18,3.175 0.019,3.175 -0.14,3.175 -0.274,3.073 -0.323,2.932 l -2.335,-6.775 h 1.347 l 0.821,2.406 z" style="fill:#0060a8;fill-opacity:1;fill-rule:nonzero;stroke:none" id="path20656" inkscape:connector-curvature="0"/>
    </g>
    <g id="g20658" transform="matrix(4.5446998,0,0,-4.5446998,161.86949,146.00499)" style="fill:#0060a8;fill-opacity:1">
      <path d="m 0,0 c -0.22,0.769 -0.928,1.332 -1.768,1.332 -0.83,0 -1.532,-0.55 -1.761,-1.306 L -5.65,-6.193 v 4.57 h -3.223 v -1.141 h 2.082 V -5.852 H -9.41 c -0.63,0 -1.141,0.511 -1.141,1.141 v 3.628 c 10e-4,0.629 0.512,1.139 1.141,1.139 h 3.76 v 1.141 h -3.76 c -1.261,0 -2.283,-1.022 -2.283,-2.283 v -3.625 c 0,-1.261 1.022,-2.283 2.284,-2.283 h 4.693 l 2.36,6.854 c 0.083,0.251 0.32,0.432 0.599,0.432 0.283,0 0.521,-0.184 0.602,-0.439 l 1.914,-5.705 h -3.024 v -1.142 h 4.611 z" style="fill:#0060a8;fill-opacity:1;fill-rule:nonzero;stroke:none" id="path20660" inkscape:connector-curvature="0"/>
    </g>
    <g id="g20662" transform="matrix(4.5446998,0,0,-4.5446998,89.018849,172.60153)" style="fill:#0060a8;fill-opacity:1">
      <path d="M 0,0 C -0.631,0 -1.141,0.511 -1.141,1.141 V 4.77 C -1.14,5.398 -0.63,5.908 0,5.908 H 3.894 V 7.049 H 0 c -1.261,0 -2.283,-1.021 -2.283,-2.282 l 10e-4,-3.626 c 0,-1.26 1.021,-2.283 2.282,-2.283 H 3.894 V 0 Z" style="fill:#0060a8;fill-opacity:1;fill-rule:nonzero;stroke:none" id="path20664" inkscape:connector-curvature="0"/>
    </g>
    <g id="g20666" transform="matrix(4.5446998,0,0,-4.5446998,90.239541,164.97412)" style="fill:#0060a8;fill-opacity:1">
      <path d="m 0,0 h 2.82 v 1.141 h -3.961 v -1.678 c 0,-0.482 0.39,-0.873 0.873,-0.873 h 3.893 v 1.142 H 0.268 C 0.12,-0.268 0,-0.148 0,0" style="fill:#0060a8;fill-opacity:1;fill-rule:nonzero;stroke:none" id="path20668" inkscape:connector-curvature="0"/>
    </g>
    <g id="g20670" transform="matrix(4.5446998,0,0,-4.5446998,103.05652,153.37925)" style="fill:#0060a8;fill-opacity:1">
      <path d="m 0,0 h -2.82 c 0,0.148 0.12,0.268 0.268,0.268 H 0.805 V 1.41 H -3.089 C -3.57,1.41 -3.961,1.02 -3.962,0.539 V -1.142 H 0 Z" style="fill:#0060a8;fill-opacity:1;fill-rule:nonzero;stroke:none" id="path20672" inkscape:connector-curvature="0"/>
    </g>
    <g id="g20674" transform="matrix(4.5446998,0,0,-4.5446998,165.97834,140.78959)">
      <path d="M 0,0 C 0,0.206 0.081,0.399 0.226,0.544 0.371,0.69 0.564,0.77 0.77,0.77 0.976,0.77 1.169,0.69 1.315,0.544 1.46,0.399 1.54,0.206 1.54,0 1.54,-0.424 1.195,-0.77 0.77,-0.77 0.564,-0.77 0.371,-0.69 0.226,-0.544 0.081,-0.399 0,-0.206 0,0 m 0.77,-0.895 c 0.24,0 0.464,0.093 0.633,0.262 C 1.572,-0.464 1.665,-0.239 1.665,0 1.665,0.239 1.572,0.464 1.403,0.633 1.234,0.801 1.01,0.895 0.77,0.895 0.277,0.895 -0.125,0.493 -0.125,0 c 0,-0.239 0.094,-0.464 0.262,-0.633 0.169,-0.169 0.394,-0.262 0.633,-0.262" style="fill:#000000;fill-opacity:1;fill-rule:nonzero;stroke:none" id="path20676" inkscape:connector-curvature="0"/>
    </g>
    <g id="g20678" transform="matrix(4.5446998,0,0,-4.5446998,168.43339,140.63358)">
      <path d="M 0,0 H 0.263 C 0.305,0 0.344,0 0.384,0.01 0.475,0.033 0.507,0.099 0.507,0.17 0.507,0.196 0.505,0.263 0.448,0.309 0.396,0.353 0.332,0.352 0.256,0.352 H 0 Z M 0,-0.11 V -0.531 H -0.13 V 0.461 H 0.239 C 0.377,0.46 0.458,0.46 0.536,0.401 0.608,0.346 0.64,0.263 0.64,0.172 0.64,-0.06 0.453,-0.093 0.405,-0.101 l 0.278,-0.43 H 0.526 l -0.27,0.421 z" style="fill:#000000;fill-opacity:1;fill-rule:nonzero;stroke:none" id="path20680" inkscape:connector-curvature="0"/>
    </g>
  </g>
</svg>
